<svg viewBox="0 0 576.556 576.557" style="enable-background:new 0 0 576.556 576.557" xml:space="preserve" xmlns="http://www.w3.org/2000/svg"><path d="M25.813 362.18c9.663 6.625 21.026 10.127 32.859 10.127h52.383v141.798c0 32.058 26.082 58.14 58.14 58.14h238.167c32.058 0 58.14-26.082 58.14-58.14V372.307h52.384c11.833 0 23.195-3.502 32.858-10.127 8.913-6.109 15.942-14.595 20.33-24.536 4.389-9.943 5.92-20.854 4.428-31.557-1.617-11.604-6.688-22.359-14.662-31.102L331.233 23.271c-10.99-12.048-26.646-18.958-42.954-18.958s-31.964 6.91-42.955 18.959L15.718 274.985c-7.975 8.742-13.045 19.497-14.662 31.102-1.492 10.702.039 21.614 4.427 31.556S16.9 356.07 25.813 362.18zm21.556-58.325L276.976 52.142a15.241 15.241 0 0 1 11.304-4.989 15.24 15.24 0 0 1 11.303 4.989L529.19 303.856c8.959 9.822 1.99 25.611-11.304 25.611h-79.924c-8.45 0-15.3 6.851-15.3 15.3v169.338c0 8.449-6.851 15.3-15.3 15.3H169.196c-8.45 0-15.3-6.851-15.3-15.3V344.767c0-8.449-6.85-15.3-15.3-15.3H58.672c-13.295 0-20.263-15.788-11.303-25.612z"/><path d="M407.363 572.744H169.196c-32.334 0-58.64-26.306-58.64-58.64V372.807H58.672c-11.935 0-23.395-3.532-33.142-10.215-8.99-6.161-16.08-14.719-20.506-24.747C.598 327.818-.946 316.812.56 306.018c1.63-11.704 6.745-22.552 14.788-31.369L244.955 22.935C256.04 10.783 271.83 3.813 288.279 3.813c16.448 0 32.238 6.97 43.323 19.122l229.607 251.714c8.043 8.817 13.157 19.665 14.788 31.369 1.505 10.793-.04 21.799-4.465 31.828-4.427 10.028-11.518 18.586-20.506 24.746-9.746 6.683-21.206 10.215-33.141 10.215H466v141.298c0 32.333-26.304 58.639-58.638 58.639zM288.279 4.812c-16.168 0-31.69 6.851-42.585 18.796L16.087 275.322C8.18 283.99 3.154 294.652 1.55 306.156c-1.48 10.609.039 21.427 4.389 31.284 4.35 9.858 11.32 18.271 20.156 24.327 9.58 6.567 20.844 10.039 32.576 10.039h52.883v142.298c0 31.782 25.857 57.64 57.64 57.64h238.167c31.782 0 57.64-25.857 57.64-57.64V371.807h52.884c11.73 0 22.996-3.472 32.575-10.039 8.835-6.056 15.805-14.468 20.157-24.326 4.35-9.858 5.867-20.677 4.389-31.285-1.604-11.504-6.63-22.167-14.536-30.834L330.864 23.608c-10.897-11.945-26.417-18.796-42.585-18.796zm119.084 525.092H169.196c-8.712 0-15.8-7.088-15.8-15.8V344.767c0-8.16-6.64-14.8-14.8-14.8H58.672c-6.352 0-11.89-3.609-14.455-9.42-2.564-5.811-1.5-12.335 2.782-17.028L276.606 51.805a15.835 15.835 0 0 1 11.673-5.152c4.43 0 8.686 1.878 11.672 5.152l229.607 251.714c4.28 4.692 5.346 11.218 2.78 17.028-2.564 5.81-8.103 9.42-14.453 9.42H437.96c-8.161 0-14.8 6.64-14.8 14.8v169.338c.002 8.711-7.086 15.799-15.798 15.799zM288.279 47.652a14.83 14.83 0 0 0-10.934 4.826L47.738 304.192c-4.01 4.396-5.008 10.508-2.606 15.951 2.402 5.442 7.59 8.823 13.54 8.823h79.923c8.712 0 15.8 7.088 15.8 15.8v169.338c0 8.16 6.639 14.8 14.8 14.8h238.167c8.16 0 14.8-6.64 14.8-14.8V344.767c0-8.712 7.088-15.8 15.8-15.8h79.924c5.949 0 11.137-3.381 13.539-8.824 2.402-5.442 1.404-11.555-2.604-15.95L299.213 52.479a14.832 14.832 0 0 0-10.934-4.827z"/></svg>