<?xml version="1.0" encoding="UTF-8" standalone="no"?>
<!-- Generator: Adobe Illustrator 16.0.0, SVG Export Plug-In . SVG Version: 6.00 Build 0)  -->

<svg
   version="1.1"
   id="Capa_1"
   x="0px"
   y="0px"
   width="100%"
   height="100%"
   viewBox="0 0 576.556 576.557"
   style="enable-background:new 0 0 576.556 576.557;"
   xml:space="preserve"
   sodipodi:docname="downvote.svg"
   inkscape:version="1.2 (dc2aedaf03, 2022-05-15)"
   xmlns:inkscape="http://www.inkscape.org/namespaces/inkscape"
   xmlns:sodipodi="http://sodipodi.sourceforge.net/DTD/sodipodi-0.dtd"
   xmlns="http://www.w3.org/2000/svg"
   xmlns:svg="http://www.w3.org/2000/svg"><defs
   id="defs267" /><sodipodi:namedview
   id="namedview265"
   pagecolor="#505050"
   bordercolor="#eeeeee"
   borderopacity="1"
   inkscape:showpageshadow="0"
   inkscape:pageopacity="0"
   inkscape:pagecheckerboard="0"
   inkscape:deskcolor="#505050"
   showgrid="false"
   inkscape:zoom="1.7379027"
   inkscape:cx="288.2785"
   inkscape:cy="288.2785"
   inkscape:window-width="3440"
   inkscape:window-height="1377"
   inkscape:window-x="1912"
   inkscape:window-y="-8"
   inkscape:window-maximized="1"
   inkscape:current-layer="Capa_1" />
<g
   id="g232"
   transform="matrix(1,0,0,-1,8.4695031e-4,576.557)">
	<g
   id="g230">
		<g
   id="g228">
			<path
   d="m 25.812,362.18 c 9.663,6.625 21.026,10.127 32.859,10.127 h 52.383 v 141.798 c 0,32.058 26.082,58.14 58.14,58.14 h 238.167 c 32.058,0 58.14,-26.082 58.14,-58.14 V 372.307 h 52.384 c 11.833,0 23.195,-3.502 32.858,-10.127 8.913,-6.109 15.942,-14.595 20.331,-24.536 4.388,-9.943 5.919,-20.854 4.427,-31.557 -1.617,-11.604 -6.688,-22.359 -14.662,-31.102 L 331.232,23.271 C 320.242,11.223 304.586,4.313 288.278,4.313 c -16.308,0 -31.964,6.91 -42.955,18.959 L 15.717,274.985 c -7.975,8.742 -13.045,19.497 -14.662,31.102 -1.492,10.702 0.039,21.614 4.427,31.556 4.388,9.942 11.418,18.427 20.33,24.537 z M 47.368,303.855 276.975,52.142 c 3.034,-3.326 7.169,-4.989 11.304,-4.989 4.134,0 8.269,1.663 11.303,4.989 l 229.607,251.714 c 8.959,9.822 1.99,25.611 -11.304,25.611 h -79.924 c -8.45,0 -15.3,6.851 -15.3,15.3 v 169.338 c 0,8.449 -6.851,15.3 -15.3,15.3 H 169.195 c -8.45,0 -15.3,-6.851 -15.3,-15.3 V 344.767 c 0,-8.449 -6.85,-15.3 -15.3,-15.3 H 58.671 c -13.295,0 -20.263,-15.788 -11.303,-25.612 z"
   id="path224" />
			<path
   d="M 407.362,572.744 H 169.195 c -32.334,0 -58.64,-26.306 -58.64,-58.64 V 372.807 H 58.671 c -11.935,0 -23.395,-3.532 -33.142,-10.215 C 16.54,356.431 9.449,347.873 5.023,337.845 0.597,327.818 -0.946,316.812 0.559,306.018 2.19,294.314 7.304,283.466 15.347,274.649 L 244.954,22.935 C 256.039,10.783 271.83,3.813 288.278,3.813 c 16.448,0 32.238,6.97 43.323,19.122 l 229.607,251.714 c 8.043,8.817 13.157,19.665 14.788,31.369 1.505,10.793 -0.039,21.799 -4.465,31.828 -4.427,10.028 -11.518,18.586 -20.506,24.746 -9.746,6.683 -21.206,10.215 -33.141,10.215 H 466 v 141.298 c 10e-4,32.333 -26.304,58.639 -58.638,58.639 z M 288.278,4.812 c -16.168,0 -31.689,6.851 -42.585,18.796 L 16.086,275.322 C 8.18,283.99 3.153,294.652 1.55,306.156 c -1.479,10.609 0.039,21.427 4.389,31.284 4.351,9.858 11.321,18.271 20.156,24.327 9.58,6.567 20.844,10.039 32.576,10.039 h 52.883 v 142.298 c 0,31.782 25.857,57.64 57.64,57.64 h 238.167 c 31.782,0 57.64,-25.857 57.64,-57.64 V 371.807 h 52.884 c 11.731,0 22.996,-3.472 32.575,-10.039 8.835,-6.056 15.805,-14.468 20.157,-24.326 4.35,-9.858 5.867,-20.677 4.389,-31.285 -1.604,-11.504 -6.63,-22.167 -14.536,-30.834 L 330.863,23.608 C 319.966,11.663 304.446,4.812 288.278,4.812 Z M 407.362,529.904 H 169.195 c -8.712,0 -15.8,-7.088 -15.8,-15.8 V 344.767 c 0,-8.16 -6.639,-14.8 -14.8,-14.8 H 58.671 c -6.352,0 -11.89,-3.609 -14.455,-9.42 -2.564,-5.811 -1.499,-12.335 2.782,-17.028 L 276.605,51.805 c 2.987,-3.274 7.241,-5.152 11.673,-5.152 4.431,0 8.686,1.878 11.672,5.152 l 229.607,251.714 c 4.28,4.692 5.346,11.218 2.781,17.028 -2.565,5.81 -8.104,9.42 -14.454,9.42 H 437.96 c -8.161,0 -14.8,6.64 -14.8,14.8 v 169.338 c 0.002,8.711 -7.086,15.799 -15.798,15.799 z M 288.278,47.652 c -4.151,0 -8.137,1.759 -10.934,4.826 L 47.737,304.192 c -4.01,4.396 -5.008,10.508 -2.606,15.951 2.402,5.442 7.59,8.823 13.54,8.823 h 79.923 c 8.712,0 15.8,7.088 15.8,15.8 v 169.338 c 0,8.16 6.639,14.8 14.8,14.8 h 238.167 c 8.161,0 14.8,-6.64 14.8,-14.8 V 344.767 c 0,-8.712 7.088,-15.8 15.8,-15.8 h 79.924 c 5.949,0 11.137,-3.381 13.539,-8.824 2.402,-5.442 1.404,-11.555 -2.604,-15.95 L 299.212,52.479 c -2.797,-3.067 -6.783,-4.827 -10.934,-4.827 z"
   id="path226" />
		</g>
	</g>
</g>
<g
   id="g234">
</g>
<g
   id="g236">
</g>
<g
   id="g238">
</g>
<g
   id="g240">
</g>
<g
   id="g242">
</g>
<g
   id="g244">
</g>
<g
   id="g246">
</g>
<g
   id="g248">
</g>
<g
   id="g250">
</g>
<g
   id="g252">
</g>
<g
   id="g254">
</g>
<g
   id="g256">
</g>
<g
   id="g258">
</g>
<g
   id="g260">
</g>
<g
   id="g262">
</g>
</svg>
