<svg version="1.1" xmlns="http://www.w3.org/2000/svg" xmlns:xlink="http://www.w3.org/1999/xlink" style="display:none">
<symbol viewBox="0 0 576.556 576.557" id="downvote"><path d="M25.813 214.377c9.663-6.625 21.026-10.127 32.859-10.127h52.383V62.452c0-32.058 26.082-58.14 58.14-58.14h238.167c32.058 0 58.14 26.082 58.14 58.14V204.25h52.384c11.833 0 23.195 3.502 32.858 10.127 8.913 6.109 15.942 14.595 20.33 24.536 4.389 9.943 5.92 20.854 4.428 31.557-1.617 11.604-6.688 22.359-14.662 31.102L331.233 553.286c-10.99 12.048-26.646 18.958-42.954 18.958s-31.964-6.91-42.955-18.959L15.718 301.572C7.743 292.83 2.673 282.075 1.056 270.47c-1.492-10.702.039-21.614 4.427-31.556s11.418-18.427 20.33-24.537zm21.556 58.325 229.607 251.713a15.241 15.241 0 0 0 11.304 4.989 15.24 15.24 0 0 0 11.303-4.989L529.19 272.701c8.959-9.822 1.99-25.611-11.304-25.611h-79.924c-8.45 0-15.3-6.851-15.3-15.3V62.452c0-8.449-6.851-15.3-15.3-15.3H169.196c-8.45 0-15.3 6.851-15.3 15.3V231.79c0 8.449-6.85 15.3-15.3 15.3H58.672c-13.295 0-20.263 15.788-11.303 25.612z"/></symbol>
<symbol viewBox="0 0 512 512" id="response"><path d="M256 32C114.6 32 0 125.1 0 240c0 47.6 19.9 91.2 52.9 126.3C38 405.7 7 439.1 6.5 439.5c-6.6 7-8.4 17.2-4.6 26S14.4 480 24 480c61.5 0 110-25.7 139.1-46.3C192 442.8 223.2 448 256 448c141.4 0 256-93.1 256-208S397.4 32 256 32zm0 368c-26.7 0-53.1-4.1-78.4-12.1l-22.7-7.2-19.5 13.8c-14.3 10.1-33.9 21.4-57.5 29 7.3-12.1 14.4-25.7 19.9-40.2l10.6-28.1-20.6-21.8C69.7 314.1 48 282.2 48 240c0-88.2 93.3-160 208-160s208 71.8 208 160-93.3 160-208 160z"/></symbol>
<symbol viewBox="0 0 576.556 576.557" id="upvote"><path d="M25.813 362.18c9.663 6.625 21.026 10.127 32.859 10.127h52.383v141.798c0 32.058 26.082 58.14 58.14 58.14h238.167c32.058 0 58.14-26.082 58.14-58.14V372.307h52.384c11.833 0 23.195-3.502 32.858-10.127 8.913-6.109 15.942-14.595 20.33-24.536 4.389-9.943 5.92-20.854 4.428-31.557-1.617-11.604-6.688-22.359-14.662-31.102L331.233 23.271c-10.99-12.048-26.646-18.958-42.954-18.958s-31.964 6.91-42.955 18.959L15.718 274.985c-7.975 8.742-13.045 19.497-14.662 31.102-1.492 10.702.039 21.614 4.427 31.556S16.9 356.07 25.813 362.18zm21.556-58.325L276.976 52.142a15.241 15.241 0 0 1 11.304-4.989 15.24 15.24 0 0 1 11.303 4.989L529.19 303.856c8.959 9.822 1.99 25.611-11.304 25.611h-79.924c-8.45 0-15.3 6.851-15.3 15.3v169.338c0 8.449-6.851 15.3-15.3 15.3H169.196c-8.45 0-15.3-6.851-15.3-15.3V344.767c0-8.449-6.85-15.3-15.3-15.3H58.672c-13.295 0-20.263-15.788-11.303-25.612z"/></symbol>
</svg>