<svg version="1.1" xmlns="http://www.w3.org/2000/svg" xmlns:xlink="http://www.w3.org/1999/xlink" style="display:none">
  <symbol viewBox="0 0 576.556 576.557" id="downvote">
    <path d="M25.813 214.377c9.663-6.625 21.026-10.127 32.859-10.127h52.383V62.452c0-32.058 26.082-58.14 58.14-58.14h238.167c32.058 0 58.14 26.082 58.14 58.14V204.25h52.384c11.833 0 23.195 3.502 32.858 10.127 8.913 6.109 15.942 14.595 20.33 24.536 4.389 9.943 5.92 20.854 4.428 31.557-1.617 11.604-6.688 22.359-14.662 31.102L331.233 553.286c-10.99 12.048-26.646 18.958-42.954 18.958s-31.964-6.91-42.955-18.959L15.718 301.572C7.743 292.83 2.673 282.075 1.056 270.47c-1.492-10.702.039-21.614 4.427-31.556s11.418-18.427 20.33-24.537zm21.556 58.325 229.607 251.713a15.241 15.241 0 0 0 11.304 4.989 15.24 15.24 0 0 0 11.303-4.989L529.19 272.701c8.959-9.822 1.99-25.611-11.304-25.611h-79.924c-8.45 0-15.3-6.851-15.3-15.3V62.452c0-8.449-6.851-15.3-15.3-15.3H169.196c-8.45 0-15.3 6.851-15.3 15.3V231.79c0 8.449-6.85 15.3-15.3 15.3H58.672c-13.295 0-20.263 15.788-11.303 25.612z" />
  </symbol>
  <symbol viewBox="0 0 512 512" id="response">
    <path d="M256 32C114.6 32 0 125.1 0 240c0 47.6 19.9 91.2 52.9 126.3C38 405.7 7 439.1 6.5 439.5c-6.6 7-8.4 17.2-4.6 26S14.4 480 24 480c61.5 0 110-25.7 139.1-46.3C192 442.8 223.2 448 256 448c141.4 0 256-93.1 256-208S397.4 32 256 32zm0 368c-26.7 0-53.1-4.1-78.4-12.1l-22.7-7.2-19.5 13.8c-14.3 10.1-33.9 21.4-57.5 29 7.3-12.1 14.4-25.7 19.9-40.2l10.6-28.1-20.6-21.8C69.7 314.1 48 282.2 48 240c0-88.2 93.3-160 208-160s208 71.8 208 160-93.3 160-208 160z" />
  </symbol>
  <symbol viewBox="0 0 576.556 576.557" id="upvote">
    <path d="M25.813 362.18c9.663 6.625 21.026 10.127 32.859 10.127h52.383v141.798c0 32.058 26.082 58.14 58.14 58.14h238.167c32.058 0 58.14-26.082 58.14-58.14V372.307h52.384c11.833 0 23.195-3.502 32.858-10.127 8.913-6.109 15.942-14.595 20.33-24.536 4.389-9.943 5.92-20.854 4.428-31.557-1.617-11.604-6.688-22.359-14.662-31.102L331.233 23.271c-10.99-12.048-26.646-18.958-42.954-18.958s-31.964 6.91-42.955 18.959L15.718 274.985c-7.975 8.742-13.045 19.497-14.662 31.102-1.492 10.702.039 21.614 4.427 31.556S16.9 356.07 25.813 362.18zm21.556-58.325L276.976 52.142a15.241 15.241 0 0 1 11.304-4.989 15.24 15.24 0 0 1 11.303 4.989L529.19 303.856c8.959 9.822 1.99 25.611-11.304 25.611h-79.924c-8.45 0-15.3 6.851-15.3 15.3v169.338c0 8.449-6.851 15.3-15.3 15.3H169.196c-8.45 0-15.3-6.851-15.3-15.3V344.767c0-8.449-6.85-15.3-15.3-15.3H58.672c-13.295 0-20.263-15.788-11.303-25.612z" />
  </symbol>
  <symbol viewBox="0 0 490 490" id="plus">
    <path d="M227.8 174.1v53.7h-53.7c-9.5 0-17.2 7.7-17.2 17.2s7.7 17.2 17.2 17.2h53.7v53.7c0 9.5 7.7 17.2 17.2 17.2s17.1-7.7 17.1-17.2v-53.7h53.7c9.5 0 17.2-7.7 17.2-17.2s-7.7-17.2-17.2-17.2h-53.7v-53.7c0-9.5-7.7-17.2-17.1-17.2s-17.2 7.7-17.2 17.2z" />
    <path d="M71.7 71.7C25.5 118 0 179.5 0 245s25.5 127 71.8 173.3C118 464.5 179.6 490 245 490s127-25.5 173.3-71.8C464.5 372 490 310.4 490 245s-25.5-127-71.8-173.3C372 25.5 310.5 0 245 0 179.6 0 118 25.5 71.7 71.7zm384 173.3c0 56.3-21.9 109.2-61.7 149s-92.7 61.7-149 61.7S135.8 433.8 96 394s-61.7-92.7-61.7-149S56.2 135.8 96 96s92.7-61.7 149-61.7S354.2 56.2 394 96s61.7 92.7 61.7 149z" />
  </symbol>
  <symbol viewBox="0 0 576.556 576.557" id="upvote-active">
    <path d="M25.813 362.18c9.663 6.625 21.026 10.127 32.859 10.127h52.383v141.798c0 32.058 26.082 58.14 58.14 58.14h238.167c32.058 0 58.14-26.082 58.14-58.14V372.307h52.384c11.833 0 23.195-3.502 32.858-10.127 8.913-6.109 15.942-14.595 20.33-24.536 4.389-9.943 5.92-20.854 4.428-31.557-1.617-11.604-6.688-22.359-14.662-31.102L331.233 23.271c-10.99-12.048-26.646-18.958-42.954-18.958s-31.964 6.91-42.955 18.959L15.718 274.985c-7.975 8.742-13.045 19.497-14.662 31.102-1.492 10.702.039 21.614 4.427 31.556S16.9 356.07 25.813 362.18z" />
    <path d="M407.363 572.744H169.196c-32.334 0-58.64-26.306-58.64-58.64V372.807H58.672c-11.935 0-23.395-3.532-33.142-10.215-8.99-6.161-16.08-14.719-20.506-24.747C.598 327.818-.946 316.812.56 306.018c1.63-11.704 6.745-22.552 14.788-31.369L244.955 22.935C256.04 10.783 271.83 3.813 288.279 3.813c16.448 0 32.238 6.97 43.323 19.122l229.607 251.714c8.043 8.817 13.157 19.665 14.788 31.369 1.505 10.793-.04 21.799-4.465 31.828-4.427 10.028-11.518 18.586-20.506 24.746-9.746 6.683-21.206 10.215-33.141 10.215H466v141.298c0 32.333-26.304 58.639-58.638 58.639zM288.279 4.812c-16.168 0-31.69 6.851-42.585 18.796L16.087 275.322C8.18 283.99 3.154 294.652 1.55 306.156c-1.48 10.609.039 21.427 4.389 31.284 4.35 9.858 11.32 18.271 20.156 24.327 9.58 6.567 20.844 10.039 32.576 10.039h52.883v142.298c0 31.782 25.857 57.64 57.64 57.64h238.167c31.782 0 57.64-25.857 57.64-57.64V371.807h52.884c11.73 0 22.996-3.472 32.575-10.039 8.835-6.056 15.805-14.468 20.157-24.326 4.35-9.858 5.867-20.677 4.389-31.285-1.604-11.504-6.63-22.167-14.536-30.834L330.864 23.608c-10.897-11.945-26.417-18.796-42.585-18.796z" />
  </symbol>
  <symbol viewBox="0 0 576.556 576.557" id="downvote-active">
    <path d="M25.813 214.377c9.663-6.625 21.026-10.127 32.859-10.127h52.383V62.452c0-32.058 26.082-58.14 58.14-58.14h238.167c32.058 0 58.14 26.082 58.14 58.14V204.25h52.384c11.833 0 23.195 3.502 32.858 10.127 8.913 6.109 15.942 14.595 20.33 24.536 4.389 9.943 5.92 20.854 4.428 31.557-1.617 11.604-6.688 22.359-14.662 31.102L331.233 553.286c-10.99 12.048-26.646 18.958-42.954 18.958s-31.964-6.91-42.955-18.959L15.718 301.572C7.743 292.83 2.673 282.075 1.056 270.47c-1.492-10.702.039-21.614 4.427-31.556s11.418-18.427 20.33-24.537z" />
    <path d="M407.363 3.813H169.196c-32.334 0-58.64 26.306-58.64 58.64V203.75H58.672c-11.935 0-23.395 3.532-33.142 10.215-8.99 6.161-16.08 14.719-20.506 24.747C.598 248.739-.946 259.745.56 270.539c1.63 11.704 6.745 22.552 14.788 31.369l229.607 251.714c11.085 12.152 26.876 19.122 43.324 19.122 16.448 0 32.238-6.97 43.323-19.122l229.607-251.714c8.043-8.817 13.157-19.665 14.788-31.369 1.505-10.793-.04-21.799-4.465-31.828-4.427-10.028-11.518-18.586-20.506-24.746-9.746-6.683-21.206-10.215-33.141-10.215H466V62.452c0-32.333-26.304-58.639-58.638-58.639zM288.279 571.745c-16.168 0-31.69-6.851-42.585-18.796L16.087 301.235c-7.906-8.668-12.933-19.33-14.536-30.834-1.48-10.609.039-21.427 4.389-31.284 4.35-9.858 11.32-18.271 20.156-24.327 9.58-6.567 20.844-10.039 32.576-10.039h52.883V62.453c0-31.782 25.857-57.64 57.64-57.64h238.167c31.782 0 57.64 25.857 57.64 57.64V204.75h52.884c11.73 0 22.996 3.472 32.575 10.039 8.835 6.056 15.805 14.468 20.157 24.326 4.35 9.858 5.867 20.677 4.389 31.285-1.604 11.504-6.63 22.167-14.536 30.834L330.864 552.949c-10.897 11.945-26.417 18.796-42.585 18.796z" />
  </symbol>
  <symbol viewBox="0 0 744.09 1052.4" id="close-button">
    <path d="M720.418 507.697a347.228 347.228 0 1 1-694.445 0 347.228 347.228 0 1 1 694.445 0z" stroke="#000" stroke-width="5.524" />
    <g stroke="#fff" stroke-linecap="round" stroke-width="133.87" fill="none">
      <path d="m209.688 344.193 327.06 327.059M536.748 344.193l-327.06 327.059" stroke-width="122.94219190000001" />
    </g>
  </symbol>
  <symbol xmlns="http://www.w3.org/2000/svg" id="edit" viewBox="0 0 16 16"><path d="M12.146.146a.5.5 0 0 1 .708 0l3 3a.5.5 0 0 1 0 .708l-10 10a.5.5 0 0 1-.168.11l-5 2a.5.5 0 0 1-.65-.65l2-5a.5.5 0 0 1 .11-.168l10-10zM11.207 2.5 13.5 4.793 14.793 3.5 12.5 1.207 11.207 2.5zm1.586 3L10.5 3.207 4 9.707V10h.5a.5.5 0 0 1 .5.5v.5h.5a.5.5 0 0 1 .5.5v.5h.293l6.5-6.5zm-9.761 5.175-.106.106-1.528 3.821 3.821-1.528.106-.106A.5.5 0 0 1 5 12.5V12h-.5a.5.5 0 0 1-.5-.5V11h-.5a.5.5 0 0 1-.468-.325z"/></symbol>
  <symbol xmlns="http://www.w3.org/2000/svg" id="delete" viewBox="0 0 16 16"><path d="M6.5 1h3a.5.5 0 0 1 .5.5v1H6v-1a.5.5 0 0 1 .5-.5zM11 2.5v-1A1.5 1.5 0 0 0 9.5 0h-3A1.5 1.5 0 0 0 5 1.5v1H2.506a.58.58 0 0 0-.01 0H1.5a.5.5 0 0 0 0 1h.538l.853 10.66A2 2 0 0 0 4.885 16h6.23a2 2 0 0 0 1.994-1.84l.853-10.66h.538a.5.5 0 0 0 0-1h-.995a.59.59 0 0 0-.01 0H11zm1.958 1-.846 10.58a1 1 0 0 1-.997.92h-6.23a1 1 0 0 1-.997-.92L3.042 3.5h9.916zm-7.487 1a.5.5 0 0 1 .528.47l.5 8.5a.5.5 0 0 1-.998.06L5 5.03a.5.5 0 0 1 .47-.53zm5.058 0a.5.5 0 0 1 .47.53l-.5 8.5a.5.5 0 1 1-.998-.06l.5-8.5a.5.5 0 0 1 .528-.47zM8 4.5a.5.5 0 0 1 .5.5v8.5a.5.5 0 0 1-1 0V5a.5.5 0 0 1 .5-.5z"/></symbol>
  <symbol version="1.1" id="close-button-2" xmlns="http://www.w3.org/2000/svg" xmlns:xlink="http://www.w3.org/1999/xlink" x="0px" y="0px"
	 viewBox="0 0 47.971 47.971" style="enable-background:new 0 0 47.971 47.971;" xml:space="preserve">
    <g>
      <path d="M28.228,23.986L47.092,5.122c1.172-1.171,1.172-3.071,0-4.242c-1.172-1.172-3.07-1.172-4.242,0L23.986,19.744L5.121,0.88
        c-1.172-1.172-3.07-1.172-4.242,0c-1.172,1.171-1.172,3.071,0,4.242l18.865,18.864L0.879,42.85c-1.172,1.171-1.172,3.071,0,4.242
        C1.465,47.677,2.233,47.97,3,47.97s1.535-0.293,2.121-0.879l18.865-18.864L42.85,47.091c0.586,0.586,1.354,0.879,2.121,0.879
        s1.535-0.293,2.121-0.879c1.172-1.171,1.172-3.071,0-4.242L28.228,23.986z"/>
    </g>
  </symbol>
  <symbol version="1.1" id="close-button-3" xmlns="http://www.w3.org/2000/svg" xmlns:xlink="http://www.w3.org/1999/xlink" x="0px" y="0px"
	 viewBox="0 0 252 252" style="enable-background:new 0 0 252 252;" xml:space="preserve">
    <g>
      <path d="M126,0C56.523,0,0,56.523,0,126s56.523,126,126,126s126-56.523,126-126S195.477,0,126,0z M126,234
        c-59.551,0-108-48.449-108-108S66.449,18,126,18s108,48.449,108,108S185.551,234,126,234z"/>
      <path d="M164.612,87.388c-3.515-3.515-9.213-3.515-12.728,0L126,113.272l-25.885-25.885c-3.515-3.515-9.213-3.515-12.728,0
        c-3.515,3.515-3.515,9.213,0,12.728L113.272,126l-25.885,25.885c-3.515,3.515-3.515,9.213,0,12.728
        c1.757,1.757,4.061,2.636,6.364,2.636s4.606-0.879,6.364-2.636L126,138.728l25.885,25.885c1.757,1.757,4.061,2.636,6.364,2.636
        s4.606-0.879,6.364-2.636c3.515-3.515,3.515-9.213,0-12.728L138.728,126l25.885-25.885
        C168.127,96.601,168.127,90.902,164.612,87.388z"/>
    </g>
  </symbol>
  <symbol xmlns="http://www.w3.org/2000/svg" id="ok" viewBox="0 0 80.588 61.158" style="enable-background:new 0 0 80.588 61.158" xml:space="preserve"><path d="M29.658 61.157a4.673 4.673 0 0 1-3.305-1.369L1.37 34.808a4.674 4.674 0 0 1 0-6.611 4.673 4.673 0 0 1 6.611 0l21.485 21.481 42.96-48.117a4.675 4.675 0 1 1 6.975 6.227L33.145 59.595a4.678 4.678 0 0 1-3.355 1.56l-.132.002z"/></symbol>
   <symbol viewBox="0 0 16 16" id="options"><path d="M9.5 13a1.5 1.5 0 1 1-3 0 1.5 1.5 0 0 1 3 0zm0-5a1.5 1.5 0 1 1-3 0 1.5 1.5 0 0 1 3 0zm0-5a1.5 1.5 0 1 1-3 0 1.5 1.5 0 0 1 3 0z"/></symbol>
   <symbol id="settings" style="enable-background:new 0 0 24 24" viewBox="0 0 24 24" xml:space="preserve" xmlns="http://www.w3.org/2000/svg"><path d="m22.2 14.4-1.2-.7c-1.3-.8-1.3-2.7 0-3.5l1.2-.7c1-.6 1.3-1.8.7-2.7l-1-1.7c-.6-1-1.8-1.3-2.7-.7l-1.2.7c-1.3.8-3-.2-3-1.7V2c0-1.1-.9-2-2-2h-2C9.9 0 9 .9 9 2v1.3C9 4.8 7.3 5.8 6 5l-1.2-.6c-1-.6-2.2-.2-2.7.7l-1 1.7c-.5 1-.2 2.2.7 2.8l1.2.7c1.3.7 1.3 2.7 0 3.4l-1.2.7c-1 .6-1.3 1.8-.7 2.7l1 1.7c.6 1 1.8 1.3 2.7.7l1.2-.6c1.3-.8 3 .2 3 1.7V22c0 1.1.9 2 2 2h2c1.1 0 2-.9 2-2v-1.3c0-1.5 1.7-2.5 3-1.7l1.2.7c1 .6 2.2.2 2.7-.7l1-1.7c.5-1.1.2-2.3-.7-2.9zM12 16c-2.2 0-4-1.8-4-4s1.8-4 4-4 4 1.8 4 4-1.8 4-4 4z"/></symbol>
</svg>