<svg viewBox="0 0 576.556 576.557" style="enable-background:new 0 0 576.556 576.557" xml:space="preserve" xmlns="http://www.w3.org/2000/svg"><path d="M25.813 214.377c9.663-6.625 21.026-10.127 32.859-10.127h52.383V62.452c0-32.058 26.082-58.14 58.14-58.14h238.167c32.058 0 58.14 26.082 58.14 58.14V204.25h52.384c11.833 0 23.195 3.502 32.858 10.127 8.913 6.109 15.942 14.595 20.33 24.536 4.389 9.943 5.92 20.854 4.428 31.557-1.617 11.604-6.688 22.359-14.662 31.102L331.233 553.286c-10.99 12.048-26.646 18.958-42.954 18.958s-31.964-6.91-42.955-18.959L15.718 301.572C7.743 292.83 2.673 282.075 1.056 270.47c-1.492-10.702.039-21.614 4.427-31.556s11.418-18.427 20.33-24.537z"/><path d="M407.363 3.813H169.196c-32.334 0-58.64 26.306-58.64 58.64V203.75H58.672c-11.935 0-23.395 3.532-33.142 10.215-8.99 6.161-16.08 14.719-20.506 24.747C.598 248.739-.946 259.745.56 270.539c1.63 11.704 6.745 22.552 14.788 31.369l229.607 251.714c11.085 12.152 26.876 19.122 43.324 19.122 16.448 0 32.238-6.97 43.323-19.122l229.607-251.714c8.043-8.817 13.157-19.665 14.788-31.369 1.505-10.793-.04-21.799-4.465-31.828-4.427-10.028-11.518-18.586-20.506-24.746-9.746-6.683-21.206-10.215-33.141-10.215H466V62.452c0-32.333-26.304-58.639-58.638-58.639zM288.279 571.745c-16.168 0-31.69-6.851-42.585-18.796L16.087 301.235c-7.906-8.668-12.933-19.33-14.536-30.834-1.48-10.609.039-21.427 4.389-31.284 4.35-9.858 11.32-18.271 20.156-24.327 9.58-6.567 20.844-10.039 32.576-10.039h52.883V62.453c0-31.782 25.857-57.64 57.64-57.64h238.167c31.782 0 57.64 25.857 57.64 57.64V204.75h52.884c11.73 0 22.996 3.472 32.575 10.039 8.835 6.056 15.805 14.468 20.157 24.326 4.35 9.858 5.867 20.677 4.389 31.285-1.604 11.504-6.63 22.167-14.536 30.834L330.864 552.949c-10.897 11.945-26.417 18.796-42.585 18.796z"/></svg>